<svg width="24" height="24" viewBox="0 0 24 24" fill="none" xmlns="http://www.w3.org/2000/svg">
<g clip-path="url(#clip0_3571_3388)">
<path d="M23.5006 6.5061C23.3647 6.02133 23.1 5.58245 22.7346 5.2361C22.3589 4.8791 21.8984 4.62374 21.3966 4.4941C19.5186 3.9991 11.9946 3.9991 11.9946 3.9991C8.85795 3.96341 5.72205 4.12037 2.60462 4.4691C2.10281 4.60831 1.64318 4.86939 1.26662 5.2291C0.896617 5.5851 0.628617 6.0241 0.488617 6.5051C0.15231 8.31684 -0.0110908 10.1564 0.000617183 11.9991C-0.0113828 13.8401 0.151617 15.6791 0.488617 17.4931C0.625617 17.9721 0.892617 18.4091 1.26362 18.7621C1.63462 19.1151 2.09662 19.3701 2.60462 19.5051C4.50762 19.9991 11.9946 19.9991 11.9946 19.9991C15.1353 20.0348 18.2752 19.8779 21.3966 19.5291C21.8984 19.3995 22.3589 19.1441 22.7346 18.7871C23.0999 18.4408 23.3643 18.0019 23.4996 17.5171C23.8447 15.7061 24.0125 13.8657 24.0006 12.0221C24.0266 10.1707 23.859 8.32166 23.5006 6.5051V6.5061ZM9.60262 15.4231V8.5761L15.8626 12.0001L9.60262 15.4231Z" fill="#444545"/>
</g>
<defs>
<clipPath id="clip0_3571_3388">
<rect width="24" height="24" fill="white"/>
</clipPath>
</defs>
</svg>
